<svg xmlns:rdf="http://www.w3.org/1999/02/22-rdf-syntax-ns#" xmlns="http://www.w3.org/2000/svg" viewBox="0 0 361.34441 159.98154" version="1.1" xmlns:cc="http://creativecommons.org/ns#" xmlns:dc="http://purl.org/dc/elements/1.1/">
<g transform="translate(-343.89 -588.12)">
<g transform="translate(-140.46 -285.37)">
<g stroke="#f00" stroke-width="1px" fill="none">
<path d="m484.35 889.51h36.786"/>
<path d="m512.77 903.38h46.819"/>
<path d="m537.86 917.25h74.687"/>
<path d="m537.86 931.13h79.703"/>
<path d="m512.77 945h40.688"/>
<path d="m512.77 958.87h61.867"/>
<path d="m537.86 972.74h25.639"/>
<path d="m561.69 986.62h60.195"/>
<path d="m537.86 1000.5h24.524"/>
<path d="m512.77 1014.4h36.229"/>
</g>
<g fill="none">
<g stroke="#69f">
<g stroke-width="1px">
<rect style="color-rendering:auto;color:#000000;isolation:auto;mix-blend-mode:normal;shape-rendering:auto;solid-color:#000000;image-rendering:auto" rx="2.2623" ry="2.2623" height="6.1929" width="50.72" y="900.29" x="511.1"/>
<rect style="color-rendering:auto;color:#000000;isolation:auto;mix-blend-mode:normal;shape-rendering:auto;solid-color:#000000;image-rendering:auto" rx="2.2623" ry="2.2623" height="6.1929" width="44.414" y="941.9" x="511.1"/>
<rect style="color-rendering:auto;color:#000000;isolation:auto;mix-blend-mode:normal;shape-rendering:auto;solid-color:#000000;image-rendering:auto" rx="2.2623" ry="2.2623" height="6.1929" width="65.302" y="955.77" x="511.1"/>
</g>
<rect style="color-rendering:auto;color:#000000;isolation:auto;mix-blend-mode:normal;shape-rendering:auto;solid-color:#000000;image-rendering:auto" rx="2.2623" ry="2.2623" height="6.1929" width="40.079" y="1011.3" x="511.1" stroke-width="1px"/>
</g>
<g stroke="#f4f40b">
<g stroke-width="1px">
<rect style="color-rendering:auto;color:#000000;isolation:auto;mix-blend-mode:normal;shape-rendering:auto;solid-color:#000000;image-rendering:auto" rx="2.2623" ry="2.2623" height="6.1929" width="77.616" y="914.16" x="536.16"/>
<rect style="color-rendering:auto;color:#000000;isolation:auto;mix-blend-mode:normal;shape-rendering:auto;solid-color:#000000;image-rendering:auto" rx="2.2623" ry="2.2623" height="6.1929" width="82.644" y="928.03" x="536.16"/>
<rect style="color-rendering:auto;color:#000000;isolation:auto;mix-blend-mode:normal;shape-rendering:auto;solid-color:#000000;image-rendering:auto" rx="2.2623" ry="2.2623" height="6.1929" width="29.382" y="969.65" x="536.16"/>
</g>
<rect style="color-rendering:auto;color:#000000;isolation:auto;mix-blend-mode:normal;shape-rendering:auto;solid-color:#000000;image-rendering:auto" rx="2.2623" ry="2.2623" height="6.1929" width="28.267" y="997.39" x="536.16" stroke-width="1px"/>
</g>
<rect style="color-rendering:auto;color:#000000;isolation:auto;mix-blend-mode:normal;shape-rendering:auto;solid-color:#000000;image-rendering:auto" rx="2.2623" ry="2.2623" height="6.1929" width="63.389" stroke="#af75c1" y="983.52" x="560.02" stroke-width="1px"/>
</g>
<g stroke="#69f" stroke-width="1px" fill="none">
<path d="m511.1 903.38c-18.416 0-18.458 0.21611-18.458-9.7337"/>
<path d="m511.1 945c-18.415 0-18.458-0.0791-18.458-51.35"/>
<path d="m511.1 958.87c-18.276 0-18.458-0.31035-18.458-65.222"/>
<path d="m511.1 1014.4c-18.768 0-18.458-0.2674-18.458-120.71"/>
</g>
<path stroke="#69f" stroke-width=".89151px" fill="#69f" style="color-rendering:auto;color:#000000;isolation:auto;mix-blend-mode:normal;shape-rendering:auto;solid-color:#000000;image-rendering:auto" d="m494.12 896.97h-2.8146l1.4073-2.4375z" fill-rule="evenodd" transform="matrix(1.1163 0 0 1.1271 -57.303 -115.92)"/>
<g font-size="5px" font-family="Calibri" fill="#6699ff">
<text style="word-spacing:0px;letter-spacing:0px" xml:space="preserve" line-height="100%" y="898.89465" x="512.3501"><tspan x="512.3501" y="898.89465">1. Arg</tspan></text>
<text style="word-spacing:0px;letter-spacing:0px" line-height="100%" y="940.51123" x="512.3501" xml:space="preserve"><tspan y="940.51123" x="512.3501">2. Arg</tspan></text>
<text style="word-spacing:0px;letter-spacing:0px" xml:space="preserve" line-height="100%" y="954.38342" x="512.3501"><tspan x="512.3501" y="954.38342">3. Arg</tspan></text>
<text style="word-spacing:0px;letter-spacing:0px" line-height="100%" y="1009.8722" x="512.3501" xml:space="preserve"><tspan y="1009.8722" x="512.3501">4. Arg</tspan></text>
</g>
<path d="m536.16 917.25c-16.409 0-16.416 0.46569-16.416-6.7039" stroke="#f4f40b" stroke-width="1px" fill="none"/>
<path d="m536.16 931.13c-16.411 0-16.416 0.19649-16.416-20.576" stroke="#f4f40b" stroke-width="1px" fill="none"/>
<g fill="#f4f40b">
<path stroke="#f4f40b" stroke-width=".89151px" style="color-rendering:auto;color:#000000;isolation:auto;mix-blend-mode:normal;shape-rendering:auto;solid-color:#000000;image-rendering:auto" fill-rule="evenodd" transform="matrix(1.1163 0 0 1.1271 -30.131 -99.361)" d="m494.12 896.97h-2.8146l1.4073-2.4375z"/>
<g font-size="5px" font-family="Calibri">
<text style="word-spacing:0px;letter-spacing:0px" line-height="100%" y="912.76685" x="537.43146" xml:space="preserve"><tspan y="912.76685" x="537.43146">1. Arg</tspan></text>
<text style="word-spacing:0px;letter-spacing:0px" xml:space="preserve" line-height="100%" y="926.63904" x="537.43146"><tspan x="537.43146" y="926.63904">2. Arg</tspan></text>
<text style="word-spacing:0px;letter-spacing:0px" xml:space="preserve" line-height="100%" y="968.25555" x="537.43146"><tspan x="537.43146" y="968.25555">1. Arg</tspan></text>
<text style="word-spacing:0px;letter-spacing:0px" line-height="100%" y="995.99994" x="537.43146" xml:space="preserve"><tspan y="995.99994" x="537.43146">2. Arg</tspan></text>
</g>
</g>
<text style="word-spacing:0px;letter-spacing:0px" font-size="5px" line-height="100%" y="982.12775" x="561.26709" font-family="Calibri" xml:space="preserve" fill="#af75c1"><tspan y="982.12775" x="561.26709">1. Arg</tspan></text>
<g stroke="#f4f40b">
<path d="m536.16 972.74c-4.8714 0-16.911 0.83538-16.911-7.464" stroke-width="1px" fill="none"/>
<path d="m536.16 1000.5c-17.271 0-16.911-0.012-16.911-35.208" stroke-width="1px" fill="none"/>
<path stroke-width=".89151px" fill="#f4f40b" style="color-rendering:auto;color:#000000;isolation:auto;mix-blend-mode:normal;shape-rendering:auto;solid-color:#000000;image-rendering:auto" d="m494.12 896.97h-2.8146l1.4073-2.4375z" fill-rule="evenodd" transform="matrix(1.1163 0 0 1.1271 -30.762 -43.735)"/>
</g>
<path d="m560.02 986.62c-16.494 0-16.447-0.10357-16.447-7.509" stroke="#af75c1" stroke-width="1px" fill="none"/>
<path stroke="#af75c1" stroke-width=".89151px" fill="#af75c1" style="color-rendering:auto;color:#000000;isolation:auto;mix-blend-mode:normal;shape-rendering:auto;solid-color:#000000;image-rendering:auto" fill-rule="evenodd" transform="matrix(1.1163 0 0 1.1271 -6.3774 -29.94)" d="m494.12 896.97h-2.8146l1.4073-2.4375z"/>
<circle style="color-rendering:auto;color:#000000;isolation:auto;mix-blend-mode:normal;shape-rendering:auto;solid-color:#000000;image-rendering:auto" cx="758.58" stroke="#f00" cy="886.25" r="12.262" stroke-width="1px" fill="none"/>
<g transform="translate(-1.7209 3.6162)" stroke="#69f" stroke-width="1px" fill="none">
<circle style="color-rendering:auto;color:#000000;isolation:auto;mix-blend-mode:normal;shape-rendering:auto;solid-color:#000000;image-rendering:auto" cx="686.39" cy="926.96" r="12.262"/>
<circle style="color-rendering:auto;color:#000000;isolation:auto;mix-blend-mode:normal;shape-rendering:auto;solid-color:#000000;image-rendering:auto" cy="926.96" cx="735.81" r="12.262"/>
<circle style="color-rendering:auto;color:#000000;isolation:auto;mix-blend-mode:normal;shape-rendering:auto;solid-color:#000000;image-rendering:auto" cx="785.23" cy="926.96" r="12.262"/>
<circle style="color-rendering:auto;color:#000000;isolation:auto;mix-blend-mode:normal;shape-rendering:auto;solid-color:#000000;image-rendering:auto" cy="926.96" cx="834.65" r="12.262"/>
</g>
<g transform="translate(1.066 16.283)">
<g stroke="#f4f40b" stroke-width="1px" fill="none">
<circle style="color-rendering:auto;color:#000000;isolation:auto;mix-blend-mode:normal;shape-rendering:auto;solid-color:#000000;image-rendering:auto" cx="668.56" cy="960.95" r="12.262"/>
<circle style="color-rendering:auto;color:#000000;isolation:auto;mix-blend-mode:normal;shape-rendering:auto;solid-color:#000000;image-rendering:auto" cy="960.95" cx="698.66" r="12.262"/>
</g>
</g>
<g transform="translate(0.137 19.627)" stroke="#f4f40b" stroke-width="1px" fill="none">
<circle style="color-rendering:auto;color:#000000;isolation:auto;mix-blend-mode:normal;shape-rendering:auto;solid-color:#000000;image-rendering:auto" cy="957.61" cx="767.77" r="12.262"/>
<circle style="color-rendering:auto;color:#000000;isolation:auto;mix-blend-mode:normal;shape-rendering:auto;solid-color:#000000;image-rendering:auto" cx="798.98" cy="957.61" r="12.262"/>
</g>
<g fill="none" stroke-width="1px">
<circle style="color-rendering:auto;color:#000000;isolation:auto;mix-blend-mode:normal;shape-rendering:auto;solid-color:#000000;image-rendering:auto" stroke="#af75c1" cy="1020.7" cx="767.91" r="12.262"/>
<g stroke="#69f">
<path d="m684.67 918.31 73.91-19.79"/>
<path d="m734.09 918.31 24.49-19.79"/>
<path d="m783.51 918.31-24.93-19.79"/>
<path d="m832.93 918.31-74.35-19.79"/>
</g>
<g stroke="#f4f40b">
<path d="m669.62 964.98 15.049-22.142"/>
<path d="m699.72 964.98-15.05-22.15"/>
<path d="m767.91 964.98 15.606-22.142"/>
<path d="m783.51 942.83 15.606 22.142"/>
</g>
<path d="m767.91 989.5v18.95" stroke="#af75c1"/>
</g>
<g font-size="5px" font-family="Calibri" fill="#6699ff">
<text style="word-spacing:0px;letter-spacing:0px" line-height="100%" y="931.71649" x="678.6048" xml:space="preserve"><tspan y="931.71649" x="678.6048">1. Arg</tspan></text>
<text style="word-spacing:0px;letter-spacing:0px" xml:space="preserve" line-height="100%" y="931.7287" x="728.09766"><tspan x="728.09766" y="931.7287">2. Arg</tspan></text>
<text style="word-spacing:0px;letter-spacing:0px" line-height="100%" y="931.7287" x="777.5307" xml:space="preserve"><tspan y="931.7287" x="777.5307">3. Arg</tspan></text>
<text style="word-spacing:0px;letter-spacing:0px" xml:space="preserve" line-height="100%" y="931.71283" x="827.01746"><tspan x="827.01746" y="931.71283">4. Arg</tspan></text>
</g>
<g font-size="5px" font-family="Calibri" fill="#f4f40b">
<text style="word-spacing:0px;letter-spacing:0px" xml:space="preserve" line-height="100%" y="978.38251" x="663.55597"><tspan x="663.55597" y="978.38251">1. Arg</tspan></text>
<text style="word-spacing:0px;letter-spacing:0px" line-height="100%" y="978.39471" x="693.72687" xml:space="preserve"><tspan y="978.39471" x="693.72687">2. Arg</tspan></text>
<text style="word-spacing:0px;letter-spacing:0px" line-height="100%" y="978.38251" x="761.83783" xml:space="preserve"><tspan y="978.38251" x="761.83783">1. Arg</tspan></text>
<text style="word-spacing:0px;letter-spacing:0px" xml:space="preserve" line-height="100%" y="978.39471" x="793.12347"><tspan x="793.12347" y="978.39471">2. Arg</tspan></text>
</g>
<text style="word-spacing:0px;letter-spacing:0px" xml:space="preserve" font-size="5px" line-height="100%" y="1021.8569" x="761.83783" font-family="Calibri" fill="#af75c1"><tspan x="761.83783" y="1021.8569">1. Arg</tspan></text>
</g>
</g>
</svg>
