<svg xmlns:rdf="http://www.w3.org/1999/02/22-rdf-syntax-ns#" xmlns="http://www.w3.org/2000/svg" version="1.1" xmlns:cc="http://creativecommons.org/ns#" xmlns:dc="http://purl.org/dc/elements/1.1/" viewBox="0 0 320.77929 320.78126">
<g transform="translate(-315.61 -504.25)">
<path style="color-rendering:auto;color:#000000;isolation:auto;mix-blend-mode:normal;shape-rendering:auto;solid-color:#000000;image-rendering:auto" d="m476 504.25a160.39 160.39 0 0 0 -160.39 160.39 160.39 160.39 0 0 0 160.39 160.39 160.39 160.39 0 0 0 160.39 -160.39 160.39 160.39 0 0 0 -160.39 -160.39zm0 24.379a136.01 136.01 0 0 1 136.01 136.01 136.01 136.01 0 0 1 -136.01 136.01 136.01 136.01 0 0 1 -136.02 -136.01 136.01 136.01 0 0 1 136.02 -136.01z" fill="#69f"/>
<text style="word-spacing:0px;letter-spacing:0px;text-anchor:middle;text-align:center" xml:space="preserve" font-size="295.1px" line-height="50%" y="762.69525" x="474.91638" font-family="&apos;Gentium Book Basic&apos;" fill="#6699ff"><tspan x="474.91638" y="762.69525">i</tspan></text>
</g>
</svg>
